Coordinates
version=1
nRows=5
nColumns=40
inDegrees=yes

Units are S.I. units (second, meters, Newtons, ...)
Angles are in degrees.

endheader
time	pelvis_tilt	pelvis_list	pelvis_rotation	pelvis_tx	pelvis_ty	pelvis_tz	hip_flexion_r	hip_adduction_r	hip_rotation_r	knee_angle_r	knee_angle_r_beta	ankle_angle_r	subtalar_angle_r	mtp_angle_r	hip_flexion_l	hip_adduction_l	hip_rotation_l	knee_angle_l	knee_angle_l_beta	ankle_angle_l	subtalar_angle_l	mtp_angle_l	lumbar_extension	lumbar_bending	lumbar_rotation	arm_flex_r	arm_add_r	arm_rot_r	elbow_flex_r	pro_sup_r	wrist_flex_r	wrist_dev_r	arm_flex_l	arm_add_l	arm_rot_l	elbow_flex_l	pro_sup_l	wrist_flex_l	wrist_dev_l
     29.10750000	     -5.72780313	     -4.17651933	     -1.67301478	      0.68289923	      0.92528480	      0.47693338	     20.74198019	      1.28527592	    -13.05569700	     16.84560340	     16.84560340	      3.97538065	     -0.61203249	     -4.32627123	      8.26834451	     -8.77661143	     -6.75511998	     37.60978943	     37.60978943	     12.40166081	    -15.11338625	     -7.39140124	     -9.36652322	      7.51520981	      0.23075235	      0.02792544	    -15.25991939	     -9.14728541	     40.18226120	     45.67268272	      0.00000000	      0.00000000	      3.79379706	    -14.58136091	     -5.08905007	     69.63414080	     47.45334349	      0.00000000	      0.00000000
     29.12028571	     -5.52811168	     -4.22433069	     -1.44402129	      0.68330911	      0.92594281	      0.47904033	     20.02654448	      1.40490776	    -13.28471172	     16.83999890	     16.83999890	      4.39144743	     -0.47990920	     -4.68168117	      9.88187750	     -9.18093399	     -5.94426324	     41.36380761	     41.36380761	     10.64538257	    -16.47638076	     -7.15801447	     -9.45577037	      7.60056552	      0.11779327	      1.03541733	    -15.68817054	     -9.07193121	     41.98506811	     45.61018685	      0.00000000	      0.00000000	      3.71339088	    -13.90017077	     -4.93281802	     65.16435318	     47.36944910	      0.00000000	      0.00000000
     29.13307143	     -5.39844848	     -4.38482085	     -1.20577175	      0.68352639	      0.92632780	      0.48114339	     19.34751841	      1.65274638	    -13.61127254	     16.74375687	     16.74375687	      4.74858733	     -0.28885724	     -4.97127077	     11.77905687	     -9.71076817	     -5.09207663	     45.38137151	     45.38137151	      9.45193120	    -17.14051881	     -5.40669610	     -9.51119355	      7.78268923	      0.66439480	      1.23998148	    -16.41582544	     -8.92054523	     44.60557276	     45.51504455	      0.00000000	      0.00000000	      3.95371180	    -13.13227203	     -4.09917243	     61.06563322	     47.23858468	      0.00000000	      0.00000000
     29.14585714	     -5.25438470	     -4.51143329	     -0.98905269	      0.68358149	      0.92659654	      0.48324298	     18.74322965	      1.85089104	    -13.92567405	     16.80440240	     16.80440240	      5.19176256	     -0.06868700	     -5.13133945	     13.70832642	    -10.11430765	     -4.15729070	     49.28713170	     49.28713170	      8.50108463	    -17.61198535	     -2.73874448	     -9.59020146	      7.87940125	      0.75546917	      2.08977705	    -16.91580946	     -8.79356686	     46.69787736	     45.44768471	      0.00000000	      0.00000000	      3.66195834	    -12.69098629	     -3.35121946	     57.62543134	     47.12040892	      0.00000000	      0.00000000
     29.15864286	     -5.14292506	     -4.64839986	     -0.77956618	      0.68345615	      0.92673688	      0.48529389	     18.21130558	      2.05828421	    -14.22488985	     16.91435856	     16.91435856	      5.67964389	      0.12997899	     -5.14307015	     15.71368709	    -10.46222406	     -3.18903878	     53.02478580	     53.02478580	      7.93613063	    -17.80738511	      0.75735007	     -9.64354851	      7.96521157	      0.94594920	      2.90737225	    -17.47976667	     -8.56355981	     48.84777829	     45.37928321	      0.00000000	      0.00000000	      3.43184999	    -12.22031710	     -2.61771394	     54.23098022	     47.00155929	      0.00000000	      0.00000000
